<mxfile host="Electron" modified="2024-07-24T06:01:23.379Z" agent="Mozilla/5.0 (Windows NT 10.0; Win64; x64) AppleWebKit/537.36 (KHTML, like Gecko) draw.io/24.4.0 Chrome/120.0.6099.109 Electron/28.1.0 Safari/537.36" etag="7A8qlrJLvUrmMbkNr-5W" version="24.4.0" type="device">
  <diagram name="第 1 页" id="od21chvgVu7a1aVvnWsM">
    <mxGraphModel dx="1221" dy="725" grid="1" gridSize="10" guides="1" tooltips="1" connect="1" arrows="1" fold="1" page="1" pageScale="1" pageWidth="827" pageHeight="1169" math="0" shadow="0">
      <root>
        <mxCell id="0" />
        <mxCell id="1" parent="0" />
        <mxCell id="R3DCP7OFDecAm69iHuIM-1" value="&lt;h2 style=&quot;line-height: 130%;&quot;&gt;Workspace&lt;/h2&gt;" style="shape=cylinder3;whiteSpace=wrap;html=1;boundedLbl=1;backgroundOutline=1;size=15;fillColor=#fff2cc;strokeColor=#d6b656;" vertex="1" parent="1">
          <mxGeometry x="349" y="40" width="130" height="130" as="geometry" />
        </mxCell>
        <mxCell id="R3DCP7OFDecAm69iHuIM-2" value="&lt;h2 style=&quot;line-height: 130%;&quot;&gt;Remote&lt;/h2&gt;" style="shape=cylinder3;whiteSpace=wrap;html=1;boundedLbl=1;backgroundOutline=1;size=15;" vertex="1" parent="1">
          <mxGeometry x="110" y="380" width="130" height="130" as="geometry" />
        </mxCell>
        <mxCell id="R3DCP7OFDecAm69iHuIM-3" value="&lt;h2 style=&quot;line-height: 130%;&quot;&gt;Respository&lt;/h2&gt;" style="shape=cylinder3;whiteSpace=wrap;html=1;boundedLbl=1;backgroundOutline=1;size=15;" vertex="1" parent="1">
          <mxGeometry x="620" y="380" width="130" height="130" as="geometry" />
        </mxCell>
        <mxCell id="R3DCP7OFDecAm69iHuIM-6" value="" style="endArrow=classic;html=1;rounded=0;exitX=0.855;exitY=1;exitDx=0;exitDy=-4.35;exitPerimeter=0;entryX=0.145;entryY=0;entryDx=0;entryDy=4.35;entryPerimeter=0;" edge="1" parent="1" source="R3DCP7OFDecAm69iHuIM-1" target="R3DCP7OFDecAm69iHuIM-8">
          <mxGeometry width="50" height="50" relative="1" as="geometry">
            <mxPoint x="450" y="80" as="sourcePoint" />
            <mxPoint x="550" y="230" as="targetPoint" />
          </mxGeometry>
        </mxCell>
        <mxCell id="R3DCP7OFDecAm69iHuIM-7" value="&lt;h3&gt;add&lt;/h3&gt;" style="edgeLabel;html=1;align=center;verticalAlign=middle;resizable=0;points=[];" vertex="1" connectable="0" parent="R3DCP7OFDecAm69iHuIM-6">
          <mxGeometry x="-0.1731" y="-1" relative="1" as="geometry">
            <mxPoint as="offset" />
          </mxGeometry>
        </mxCell>
        <mxCell id="R3DCP7OFDecAm69iHuIM-8" value="&lt;h3&gt;index&lt;/h3&gt;" style="shape=cylinder3;whiteSpace=wrap;html=1;boundedLbl=1;backgroundOutline=1;size=15;" vertex="1" parent="1">
          <mxGeometry x="600" y="200" width="60" height="80" as="geometry" />
        </mxCell>
        <mxCell id="R3DCP7OFDecAm69iHuIM-9" value="" style="endArrow=classic;html=1;rounded=0;exitX=0.855;exitY=1;exitDx=0;exitDy=-4.35;exitPerimeter=0;" edge="1" parent="1" source="R3DCP7OFDecAm69iHuIM-8" target="R3DCP7OFDecAm69iHuIM-3">
          <mxGeometry width="50" height="50" relative="1" as="geometry">
            <mxPoint x="450" y="380" as="sourcePoint" />
            <mxPoint x="500" y="330" as="targetPoint" />
          </mxGeometry>
        </mxCell>
        <mxCell id="R3DCP7OFDecAm69iHuIM-10" value="&lt;h3&gt;commit&lt;/h3&gt;" style="edgeLabel;html=1;align=center;verticalAlign=middle;resizable=0;points=[];" vertex="1" connectable="0" parent="R3DCP7OFDecAm69iHuIM-9">
          <mxGeometry x="-0.0518" y="2" relative="1" as="geometry">
            <mxPoint as="offset" />
          </mxGeometry>
        </mxCell>
        <mxCell id="R3DCP7OFDecAm69iHuIM-11" value="" style="endArrow=classic;html=1;rounded=0;exitX=0;exitY=0;exitDx=0;exitDy=15;exitPerimeter=0;entryX=0.759;entryY=1.031;entryDx=0;entryDy=0;entryPerimeter=0;" edge="1" parent="1" source="R3DCP7OFDecAm69iHuIM-3" target="R3DCP7OFDecAm69iHuIM-1">
          <mxGeometry width="50" height="50" relative="1" as="geometry">
            <mxPoint x="450" y="380" as="sourcePoint" />
            <mxPoint x="500" y="330" as="targetPoint" />
          </mxGeometry>
        </mxCell>
        <mxCell id="R3DCP7OFDecAm69iHuIM-12" value="&lt;h3&gt;checkout&lt;/h3&gt;" style="edgeLabel;html=1;align=center;verticalAlign=middle;resizable=0;points=[];" vertex="1" connectable="0" parent="R3DCP7OFDecAm69iHuIM-11">
          <mxGeometry x="-0.1245" y="3" relative="1" as="geometry">
            <mxPoint as="offset" />
          </mxGeometry>
        </mxCell>
        <mxCell id="R3DCP7OFDecAm69iHuIM-18" value="" style="endArrow=classic;html=1;rounded=0;exitX=1;exitY=0;exitDx=0;exitDy=40;exitPerimeter=0;entryX=0;entryY=0;entryDx=0;entryDy=40;entryPerimeter=0;" edge="1" parent="1" source="R3DCP7OFDecAm69iHuIM-2" target="R3DCP7OFDecAm69iHuIM-3">
          <mxGeometry width="50" height="50" relative="1" as="geometry">
            <mxPoint x="450" y="380" as="sourcePoint" />
            <mxPoint x="500" y="330" as="targetPoint" />
          </mxGeometry>
        </mxCell>
        <mxCell id="R3DCP7OFDecAm69iHuIM-19" value="&lt;h3&gt;clone&lt;/h3&gt;" style="edgeLabel;html=1;align=center;verticalAlign=middle;resizable=0;points=[];" vertex="1" connectable="0" parent="R3DCP7OFDecAm69iHuIM-18">
          <mxGeometry x="0.0604" y="-3" relative="1" as="geometry">
            <mxPoint x="-11" as="offset" />
          </mxGeometry>
        </mxCell>
        <mxCell id="R3DCP7OFDecAm69iHuIM-20" value="" style="endArrow=classic;html=1;rounded=0;exitX=0.5;exitY=0;exitDx=0;exitDy=0;exitPerimeter=0;entryX=0.145;entryY=1;entryDx=0;entryDy=-4.35;entryPerimeter=0;" edge="1" parent="1" source="R3DCP7OFDecAm69iHuIM-2" target="R3DCP7OFDecAm69iHuIM-1">
          <mxGeometry width="50" height="50" relative="1" as="geometry">
            <mxPoint x="450" y="380" as="sourcePoint" />
            <mxPoint x="500" y="330" as="targetPoint" />
          </mxGeometry>
        </mxCell>
        <mxCell id="R3DCP7OFDecAm69iHuIM-21" value="&lt;h3&gt;pull&lt;/h3&gt;" style="edgeLabel;html=1;align=center;verticalAlign=middle;resizable=0;points=[];" vertex="1" connectable="0" parent="R3DCP7OFDecAm69iHuIM-20">
          <mxGeometry x="0.0435" y="2" relative="1" as="geometry">
            <mxPoint as="offset" />
          </mxGeometry>
        </mxCell>
        <mxCell id="R3DCP7OFDecAm69iHuIM-22" value="" style="endArrow=classic;html=1;rounded=0;exitX=0;exitY=0;exitDx=0;exitDy=90;exitPerimeter=0;entryX=1;entryY=0;entryDx=0;entryDy=90;entryPerimeter=0;" edge="1" parent="1" source="R3DCP7OFDecAm69iHuIM-3" target="R3DCP7OFDecAm69iHuIM-2">
          <mxGeometry width="50" height="50" relative="1" as="geometry">
            <mxPoint x="450" y="380" as="sourcePoint" />
            <mxPoint x="500" y="330" as="targetPoint" />
          </mxGeometry>
        </mxCell>
        <mxCell id="R3DCP7OFDecAm69iHuIM-23" value="&lt;h3&gt;push&lt;/h3&gt;" style="edgeLabel;html=1;align=center;verticalAlign=middle;resizable=0;points=[];" vertex="1" connectable="0" parent="R3DCP7OFDecAm69iHuIM-22">
          <mxGeometry x="0.0509" y="-4" relative="1" as="geometry">
            <mxPoint as="offset" />
          </mxGeometry>
        </mxCell>
      </root>
    </mxGraphModel>
  </diagram>
</mxfile>
